<svg width="24" height="24" viewBox="0 0 24 24" fill="none" xmlns="http://www.w3.org/2000/svg">
<path d="M9 3C7.895 3 7 3.895 7 5V6H4C2.895 6 2 6.895 2 8V19C2 20.105 2.895 21 4 21H20C21.105 21 22 20.105 22 19V8C22 6.895 21.105 6 20 6H17V5C17 3.895 16.105 3 15 3H9ZM12 8C14.757 8 17 10.243 17 13C17 15.757 14.757 18 12 18C9.243 18 7 15.757 7 13C7 10.243 9.243 8 12 8ZM19 8C19.552 8 20 8.448 20 9C20 9.552 19.552 10 19 10C18.448 10 18 9.552 18 9C18 8.448 18.448 8 19 8ZM12 10C11.2044 10 10.4413 10.3161 9.87868 10.8787C9.31607 11.4413 9 12.2044 9 13C9 13.7956 9.31607 14.5587 9.87868 15.1213C10.4413 15.6839 11.2044 16 12 16C12.7956 16 13.5587 15.6839 14.1213 15.1213C14.6839 14.5587 15 13.7956 15 13C15 12.2044 14.6839 11.4413 14.1213 10.8787C13.5587 10.3161 12.7956 10 12 10Z" fill="#E8EAFF"/>
</svg>
